<svg width="574" height="106" viewBox="0 0 574 106" fill="none" xmlns="http://www.w3.org/2000/svg">
<path d="M29.08 104L0.58 4.99999H22.18L40.9 77.36L62.02 4.99999H76.6L97.66 77.36L116.38 4.99999H138.04L109.48 104H87.88L69.28 42.5L50.74 104H29.08ZM169.56 105.92C162.92 105.92 156.96 104.5 151.68 101.66C146.44 98.78 142.28 94.88 139.2 89.96C136.12 85.04 134.58 79.48 134.58 73.28C134.58 68.72 135.44 64.46 137.16 60.5C138.92 56.54 141.36 53.08 144.48 50.12C147.6 47.12 151.22 44.8 155.34 43.16C159.46 41.48 163.92 40.64 168.72 40.64C175.12 40.64 180.72 41.98 185.52 44.66C190.36 47.3 194.12 50.98 196.8 55.7C199.52 60.42 200.88 65.92 200.88 72.2C200.88 72.72 200.86 73.18 200.82 73.58C200.82 73.94 200.76 74.64 200.64 75.68H153.54C153.54 78.8 154.24 81.52 155.64 83.84C157.08 86.16 159.08 87.98 161.64 89.3C164.2 90.58 167.18 91.22 170.58 91.22C173.78 91.22 176.6 90.6 179.04 89.36C181.52 88.12 183.9 86.14 186.18 83.42L199.44 90.08C196.56 95.04 192.48 98.92 187.2 101.72C181.92 104.52 176.04 105.92 169.56 105.92ZM154.2 65.48H182.76C182.36 63.12 181.5 61.08 180.18 59.36C178.9 57.64 177.26 56.32 175.26 55.4C173.26 54.48 171 54.02 168.48 54.02C165.8 54.02 163.44 54.48 161.4 55.4C159.36 56.32 157.72 57.64 156.48 59.36C155.24 61.08 154.48 63.12 154.2 65.48ZM214.266 104V0.799998H232.686V104H214.266ZM280.084 105.92C275.404 105.92 270.984 105.08 266.824 103.4C262.704 101.72 259.064 99.4 255.904 96.44C252.744 93.44 250.264 89.98 248.464 86.06C246.664 82.1 245.764 77.86 245.764 73.34C245.764 68.98 246.604 64.84 248.284 60.92C250.004 57 252.404 53.52 255.484 50.48C258.604 47.44 262.244 45.04 266.404 43.28C270.604 41.52 275.144 40.64 280.024 40.64C283.984 40.64 287.784 41.2 291.424 42.32C295.104 43.44 298.064 44.88 300.304 46.64L294.004 59.06C291.004 56.86 287.284 55.76 282.844 55.76C279.044 55.76 275.824 56.6 273.184 58.28C270.544 59.96 268.524 62.14 267.124 64.82C265.764 67.5 265.084 70.32 265.084 73.28C265.084 76.52 265.824 79.48 267.304 82.16C268.784 84.8 270.864 86.9 273.544 88.46C276.264 90.02 279.404 90.8 282.964 90.8C285.164 90.8 287.224 90.5 289.144 89.9C291.064 89.3 292.684 88.5 294.004 87.5L300.304 99.92C298.024 101.64 295.084 103.06 291.484 104.18C287.884 105.34 284.084 105.92 280.084 105.92ZM342.812 105.92C336.052 105.92 329.952 104.54 324.512 101.78C319.072 98.98 314.752 95.14 311.552 90.26C308.352 85.34 306.752 79.68 306.752 73.28C306.752 66.88 308.332 61.24 311.492 56.36C314.692 51.44 319.012 47.6 324.452 44.84C329.932 42.04 336.052 40.64 342.812 40.64C349.612 40.64 355.732 42.04 361.172 44.84C366.612 47.6 370.912 51.44 374.072 56.36C377.272 61.24 378.872 66.88 378.872 73.28C378.872 79.68 377.272 85.34 374.072 90.26C370.912 95.14 366.612 98.98 361.172 101.78C355.732 104.54 349.612 105.92 342.812 105.92ZM342.872 90.2C345.992 90.2 348.832 89.48 351.392 88.04C353.952 86.6 355.972 84.62 357.452 82.1C358.932 79.54 359.672 76.6 359.672 73.28C359.672 69.96 358.932 67.04 357.452 64.52C355.972 61.96 353.952 59.96 351.392 58.52C348.832 57.08 345.992 56.36 342.872 56.36C339.712 56.36 336.852 57.08 334.292 58.52C331.772 59.96 329.772 61.96 328.292 64.52C326.812 67.04 326.072 69.96 326.072 73.28C326.072 76.6 326.812 79.54 328.292 82.1C329.772 84.62 331.772 86.6 334.292 88.04C336.852 89.48 339.712 90.2 342.872 90.2ZM391.946 104V42.56H410.366V49.4C413.406 46.36 416.426 44.14 419.426 42.74C422.426 41.34 425.666 40.64 429.146 40.64C433.866 40.64 438.126 41.7 441.926 43.82C445.726 45.94 448.446 48.78 450.086 52.34C453.086 48.46 456.306 45.54 459.746 43.58C463.186 41.62 467.126 40.64 471.566 40.64C476.006 40.64 479.946 41.56 483.386 43.4C486.826 45.24 489.526 47.86 491.486 51.26C493.486 54.62 494.486 58.6 494.486 63.2V104H476.066V68.24C476.066 64.24 475.026 61.1 472.946 58.82C470.866 56.5 468.086 55.34 464.606 55.34C462.206 55.34 460.086 55.84 458.246 56.84C456.446 57.84 455.026 59.18 453.986 60.86C452.946 62.54 452.426 64.4 452.426 66.44V104H434.006V67.88C434.006 64.08 432.986 61.04 430.946 58.76C428.946 56.48 426.166 55.34 422.606 55.34C420.246 55.34 418.126 55.84 416.246 56.84C414.406 57.84 412.966 59.2 411.926 60.92C410.886 62.64 410.366 64.54 410.366 66.62V104H391.946ZM541.747 105.92C535.107 105.92 529.147 104.5 523.867 101.66C518.627 98.78 514.467 94.88 511.387 89.96C508.307 85.04 506.767 79.48 506.767 73.28C506.767 68.72 507.627 64.46 509.347 60.5C511.107 56.54 513.547 53.08 516.667 50.12C519.787 47.12 523.407 44.8 527.527 43.16C531.647 41.48 536.107 40.64 540.907 40.64C547.307 40.64 552.907 41.98 557.707 44.66C562.547 47.3 566.307 50.98 568.987 55.7C571.707 60.42 573.067 65.92 573.067 72.2C573.067 72.72 573.047 73.18 573.007 73.58C573.007 73.94 572.947 74.64 572.827 75.68H525.727C525.727 78.8 526.427 81.52 527.827 83.84C529.267 86.16 531.267 87.98 533.827 89.3C536.387 90.58 539.367 91.22 542.767 91.22C545.967 91.22 548.787 90.6 551.227 89.36C553.707 88.12 556.087 86.14 558.367 83.42L571.627 90.08C568.747 95.04 564.667 98.92 559.387 101.72C554.107 104.52 548.227 105.92 541.747 105.92ZM526.387 65.48H554.947C554.547 63.12 553.687 61.08 552.367 59.36C551.087 57.64 549.447 56.32 547.447 55.4C545.447 54.48 543.187 54.02 540.667 54.02C537.987 54.02 535.627 54.48 533.587 55.4C531.547 56.32 529.907 57.64 528.667 59.36C527.427 61.08 526.667 63.12 526.387 65.48Z" fill="#EEEFF4"/>
</svg>
