<svg width="24" height="354" viewBox="0 0 24 354" fill="none" xmlns="http://www.w3.org/2000/svg">
<g clip-path="url(#clip0_0_509)">
<rect x="14" width="1" height="104" fill="#C8CCD8"/>
<path d="M9.656 158.84C9.656 159.524 9.749 160.121 9.935 160.631C10.127 161.147 10.316 161.522 10.502 161.756L8.882 162.566C8.642 162.296 8.399 161.825 8.153 161.153C7.907 160.481 7.784 159.677 7.784 158.741C7.784 157.865 7.94 157.049 8.252 156.293C8.564 155.537 8.996 154.874 9.548 154.304C10.106 153.734 10.757 153.29 11.501 152.972C12.245 152.654 13.052 152.495 13.922 152.495C14.792 152.495 15.602 152.654 16.352 152.972C17.102 153.29 17.756 153.731 18.314 154.295C18.872 154.865 19.307 155.528 19.619 156.284C19.937 157.046 20.096 157.865 20.096 158.741C20.096 159.677 19.973 160.481 19.727 161.153C19.481 161.825 19.238 162.296 18.998 162.566L17.378 161.756C17.564 161.522 17.75 161.147 17.936 160.631C18.128 160.121 18.224 159.524 18.224 158.84C18.224 158.192 18.116 157.604 17.9 157.076C17.684 156.548 17.381 156.095 16.991 155.717C16.601 155.339 16.145 155.048 15.623 154.844C15.107 154.64 14.549 154.538 13.949 154.538C13.343 154.538 12.779 154.64 12.257 154.844C11.735 155.048 11.279 155.339 10.889 155.717C10.499 156.095 10.196 156.548 9.98 157.076C9.764 157.604 9.656 158.192 9.656 158.84ZM13.949 183.801C13.133 183.801 12.392 183.972 11.726 184.314C11.066 184.656 10.541 185.127 10.151 185.727C9.767 186.327 9.575 187.017 9.575 187.797C9.575 188.589 9.767 189.282 10.151 189.876C10.541 190.476 11.066 190.944 11.726 191.28C12.392 191.622 13.133 191.793 13.949 191.793C14.765 191.793 15.503 191.622 16.163 191.28C16.823 190.944 17.345 190.476 17.729 189.876C18.113 189.282 18.305 188.589 18.305 187.797C18.305 187.017 18.113 186.327 17.729 185.727C17.345 185.127 16.823 184.656 16.163 184.314C15.503 183.972 14.765 183.801 13.949 183.801ZM13.949 181.83C14.813 181.83 15.617 181.98 16.361 182.28C17.111 182.586 17.765 183.006 18.323 183.54C18.881 184.08 19.316 184.713 19.628 185.439C19.94 186.165 20.096 186.951 20.096 187.797C20.096 188.655 19.94 189.444 19.628 190.164C19.316 190.89 18.881 191.523 18.323 192.063C17.765 192.603 17.111 193.02 16.361 193.314C15.617 193.608 14.813 193.755 13.949 193.755C13.079 193.755 12.269 193.608 11.519 193.314C10.775 193.026 10.121 192.615 9.557 192.081C8.999 191.547 8.564 190.917 8.252 190.191C7.94 189.465 7.784 188.667 7.784 187.797C7.784 186.921 7.94 186.117 8.252 185.385C8.564 184.659 8.999 184.029 9.557 183.495C10.121 182.967 10.775 182.556 11.519 182.262C12.269 181.974 13.079 181.83 13.949 181.83ZM18.107 215.239L18.089 215.365H8V213.475H19.88V216.112L9.8 221.854L9.773 221.737H19.88V223.618H8V220.972L18.107 215.239ZM18.188 246.314V243.227H19.88V251.3H18.188V248.213H8V246.314H18.188ZM19.88 273.238V275.173L8 279.655V277.639L10.718 276.658V271.762L8 270.772V268.747L19.88 273.238ZM12.401 272.374V276.046L17.576 274.219V274.192L12.401 272.374ZM9.656 304.44C9.656 305.124 9.749 305.721 9.935 306.231C10.127 306.747 10.316 307.122 10.502 307.356L8.882 308.166C8.642 307.896 8.399 307.425 8.153 306.753C7.907 306.081 7.784 305.277 7.784 304.341C7.784 303.465 7.94 302.649 8.252 301.893C8.564 301.137 8.996 300.474 9.548 299.904C10.106 299.334 10.757 298.89 11.501 298.572C12.245 298.254 13.052 298.095 13.922 298.095C14.792 298.095 15.602 298.254 16.352 298.572C17.102 298.89 17.756 299.331 18.314 299.895C18.872 300.465 19.307 301.128 19.619 301.884C19.937 302.646 20.096 303.465 20.096 304.341C20.096 305.277 19.973 306.081 19.727 306.753C19.481 307.425 19.238 307.896 18.998 308.166L17.378 307.356C17.564 307.122 17.75 306.747 17.936 306.231C18.128 305.721 18.224 305.124 18.224 304.44C18.224 303.792 18.116 303.204 17.9 302.676C17.684 302.148 17.381 301.695 16.991 301.317C16.601 300.939 16.145 300.648 15.623 300.444C15.107 300.24 14.549 300.138 13.949 300.138C13.343 300.138 12.779 300.24 12.257 300.444C11.735 300.648 11.279 300.939 10.889 301.317C10.499 301.695 10.196 302.148 9.98 302.676C9.764 303.204 9.656 303.792 9.656 304.44ZM18.188 330.337V327.25H19.88V335.323H18.188V332.236H8V330.337H18.188Z" fill="#C8CCD8"/>
</g>
<defs>
<clipPath id="clip0_0_509">
<rect width="24" height="354" fill="white"/>
</clipPath>
</defs>
</svg>
