<svg width="485" height="103" viewBox="0 0 485 103" fill="none" xmlns="http://www.w3.org/2000/svg">
<path d="M55.2597 102.92C47.7797 102.92 40.7597 101.6 34.1997 98.96C27.6397 96.32 21.8597 92.66 16.8597 87.98C11.8597 83.26 7.95969 77.8 5.15969 71.6C2.35969 65.4 0.959688 58.74 0.959688 51.62C0.959688 44.46 2.35969 37.78 5.15969 31.58C7.99969 25.34 11.8997 19.88 16.8597 15.2C21.8597 10.48 27.6197 6.79999 34.1397 4.16C40.6997 1.52 47.6997 0.199996 55.1397 0.199996C61.2197 0.199996 66.9997 1.06 72.4797 2.77999C77.9997 4.49999 82.7197 6.75999 86.6397 9.56L78.2397 26.06C75.5597 23.94 72.2997 22.28 68.4597 21.08C64.6197 19.88 60.5997 19.28 56.3997 19.28C51.4797 19.28 46.9197 20.1 42.7197 21.74C38.5597 23.38 34.9197 25.66 31.7997 28.58C28.7197 31.5 26.3197 34.92 24.5997 38.84C22.8797 42.76 22.0197 47 22.0197 51.56C22.0197 56.12 22.8797 60.36 24.5997 64.28C26.3197 68.2 28.7197 71.62 31.7997 74.54C34.9197 77.46 38.5597 79.74 42.7197 81.38C46.9197 83.02 51.4797 83.84 56.3997 83.84C60.5997 83.84 64.6197 83.24 68.4597 82.04C72.2997 80.84 75.5597 79.18 78.2397 77.06L86.6397 93.56C82.8797 96.28 78.2597 98.52 72.7797 100.28C67.2997 102.04 61.4597 102.92 55.2597 102.92ZM127.398 102.92C120.638 102.92 114.538 101.54 109.098 98.78C103.658 95.98 99.3375 92.14 96.1375 87.26C92.9375 82.34 91.3375 76.68 91.3375 70.28C91.3375 63.88 92.9175 58.24 96.0775 53.36C99.2775 48.44 103.598 44.6 109.038 41.84C114.518 39.04 120.638 37.64 127.398 37.64C134.198 37.64 140.318 39.04 145.758 41.84C151.198 44.6 155.498 48.44 158.658 53.36C161.858 58.24 163.458 63.88 163.458 70.28C163.458 76.68 161.858 82.34 158.658 87.26C155.498 92.14 151.198 95.98 145.758 98.78C140.318 101.54 134.198 102.92 127.398 102.92ZM127.458 87.2C130.578 87.2 133.418 86.48 135.978 85.04C138.538 83.6 140.558 81.62 142.038 79.1C143.518 76.54 144.258 73.6 144.258 70.28C144.258 66.96 143.518 64.04 142.038 61.52C140.558 58.96 138.538 56.96 135.978 55.52C133.418 54.08 130.578 53.36 127.458 53.36C124.298 53.36 121.438 54.08 118.878 55.52C116.358 56.96 114.358 58.96 112.878 61.52C111.398 64.04 110.658 66.96 110.658 70.28C110.658 73.6 111.398 76.54 112.878 79.1C114.358 81.62 116.358 83.6 118.878 85.04C121.438 86.48 124.298 87.2 127.458 87.2ZM176.532 101V39.56H194.952V46.4C197.312 43.76 200.252 41.64 203.772 40.04C207.332 38.44 211.252 37.64 215.532 37.64C220.252 37.64 224.392 38.68 227.952 40.76C231.552 42.8 234.372 45.66 236.412 49.34C238.452 52.98 239.472 57.24 239.472 62.12V101H221.052V66.02C221.052 61.62 219.892 58.2 217.572 55.76C215.292 53.28 212.152 52.04 208.152 52.04C205.432 52.04 203.072 52.6 201.072 53.72C199.112 54.8 197.592 56.3 196.512 58.22C195.472 60.1 194.952 62.24 194.952 64.64V101H176.532ZM277.446 102.92C271.326 102.92 266.566 100.98 263.166 97.1C259.766 93.18 258.066 87.72 258.066 80.72V53.54H249.846V39.56H258.066V16.52H276.486V39.56H289.986V53.54H276.486V79.4C276.486 81.72 276.946 83.48 277.866 84.68C278.826 85.88 280.166 86.48 281.886 86.48C283.806 86.48 285.646 85.84 287.406 84.56L292.026 99.32C289.946 100.44 287.606 101.32 285.006 101.96C282.446 102.6 279.926 102.92 277.446 102.92ZM330.332 102.92C324.692 102.92 319.552 101.52 314.912 98.72C310.312 95.88 306.652 92 303.932 87.08C301.252 82.12 299.912 76.48 299.912 70.16C299.912 64 301.212 58.48 303.812 53.6C306.412 48.68 309.992 44.8 314.552 41.96C319.152 39.08 324.412 37.64 330.332 37.64C334.692 37.64 338.752 38.48 342.512 40.16C346.312 41.8 349.412 44.1 351.812 47.06V39.56H370.232V101H351.812V92.9C349.012 96.14 345.792 98.62 342.152 100.34C338.512 102.06 334.572 102.92 330.332 102.92ZM335.792 87.26C338.992 87.26 341.832 86.54 344.312 85.1C346.792 83.62 348.732 81.6 350.132 79.04C351.532 76.48 352.232 73.56 352.232 70.28C352.232 66.96 351.512 64.04 350.072 61.52C348.672 58.96 346.732 56.96 344.252 55.52C341.812 54.04 338.992 53.3 335.792 53.3C332.632 53.3 329.812 54.04 327.332 55.52C324.852 56.96 322.892 58.96 321.452 61.52C320.012 64.08 319.292 67 319.292 70.28C319.292 73.56 319.992 76.48 321.392 79.04C322.832 81.6 324.792 83.62 327.272 85.1C329.752 86.54 332.592 87.26 335.792 87.26ZM417.639 102.92C412.959 102.92 408.539 102.08 404.379 100.4C400.259 98.72 396.619 96.4 393.459 93.44C390.299 90.44 387.819 86.98 386.019 83.06C384.219 79.1 383.319 74.86 383.319 70.34C383.319 65.98 384.159 61.84 385.839 57.92C387.559 54 389.959 50.52 393.039 47.48C396.159 44.44 399.799 42.04 403.959 40.28C408.159 38.52 412.699 37.64 417.579 37.64C421.539 37.64 425.339 38.2 428.979 39.32C432.659 40.44 435.619 41.88 437.859 43.64L431.559 56.06C428.559 53.86 424.839 52.76 420.399 52.76C416.599 52.76 413.379 53.6 410.739 55.28C408.099 56.96 406.079 59.14 404.679 61.82C403.319 64.5 402.639 67.32 402.639 70.28C402.639 73.52 403.379 76.48 404.859 79.16C406.339 81.8 408.419 83.9 411.099 85.46C413.819 87.02 416.959 87.8 420.519 87.8C422.719 87.8 424.779 87.5 426.699 86.9C428.619 86.3 430.239 85.5 431.559 84.5L437.859 96.92C435.579 98.64 432.639 100.06 429.039 101.18C425.439 102.34 421.639 102.92 417.639 102.92ZM470.36 102.92C464.24 102.92 459.48 100.98 456.08 97.1C452.68 93.18 450.98 87.72 450.98 80.72V53.54H442.76V39.56H450.98V16.52H469.4V39.56H482.9V53.54H469.4V79.4C469.4 81.72 469.86 83.48 470.78 84.68C471.74 85.88 473.08 86.48 474.8 86.48C476.72 86.48 478.56 85.84 480.32 84.56L484.94 99.32C482.86 100.44 480.52 101.32 477.92 101.96C475.36 102.6 472.84 102.92 470.36 102.92Z" fill="#EEEFF4"/>
</svg>
