<svg width="77" height="33" viewBox="0 0 77 33" fill="none" xmlns="http://www.w3.org/2000/svg">
<g id="Arch 3">
<path id="Subtract" fill-rule="evenodd" clip-rule="evenodd" d="M10.4751 26.4341L8.66524 31.4431H0L12.2849 1.2793H19.7436L32.0285 31.4431H23.3632L21.5534 26.4341H10.4751ZM16.0142 12.2113L13.2172 19.3775H18.8112L16.0142 12.2113Z" fill="#1B1D23"/>
<path id="Path" d="M36.2695 31.4435V22.2664C36.2695 21.6448 36.4462 21.0659 36.7996 20.5297C37.1531 19.9935 37.6192 19.5578 38.1981 19.2226C38.777 18.8874 39.3895 18.7199 40.0354 18.7199C40.5473 18.7199 41.1109 18.8235 41.7264 19.0306C42.3419 19.2378 42.8751 19.5121 43.326 19.8533L46.5069 13.4549C45.9828 13.0649 45.3186 12.748 44.5143 12.5043C43.7099 12.2605 42.9482 12.1387 42.2291 12.1387C41.1201 12.1387 40.0445 12.422 39.0025 12.9887C37.9605 13.5555 37.0495 14.3446 36.2695 15.3561V12.7237H28.6646V31.4435H36.2695Z" fill="#1B1D23"/>
<path id="Path_2" d="M51.4799 32.0285C52.6864 32.0285 53.8351 31.8609 54.9259 31.5258C56.0166 31.1906 56.8789 30.7976 57.5126 30.3466L55.0264 25.2279C54.7948 25.3864 54.4749 25.5296 54.0666 25.6575C53.6584 25.7855 53.2105 25.8495 52.723 25.8495C51.9308 25.8495 51.2422 25.6758 50.6572 25.3285C50.0722 24.9811 49.6243 24.5211 49.3136 23.9483C49.0028 23.3755 48.8474 22.7539 48.8474 22.0836C48.8474 21.5473 48.9784 20.9867 49.2404 20.4017C49.5025 19.8167 49.9168 19.3231 50.4836 18.921C51.0503 18.5188 51.7846 18.3177 52.6864 18.3177C53.637 18.3177 54.417 18.5249 55.0264 18.9392L57.5126 13.8205C56.9033 13.3574 56.038 12.9613 54.9167 12.6323C53.7955 12.3032 52.6377 12.1387 51.4433 12.1387C49.9199 12.1387 48.5092 12.4159 47.2112 12.9705C45.9133 13.525 44.7859 14.2745 43.8292 15.219C42.8725 16.1636 42.1291 17.23 41.5989 18.4182C41.0688 19.6065 40.8037 20.8344 40.8037 22.1019C40.8037 23.4547 41.0871 24.7313 41.6538 25.9318C42.2205 27.1322 42.9974 28.1895 43.9846 29.1035C44.9718 30.0176 46.1083 30.7336 47.394 31.2516C48.6798 31.7695 50.0418 32.0285 51.4799 32.0285Z" fill="#1B1D23"/>
<path id="Path_3" d="M63.2529 31.4435V21.133C63.2529 20.4992 63.3809 19.9508 63.6368 19.4877C63.8927 19.0245 64.2523 18.665 64.7154 18.4091C65.1785 18.1531 65.7147 18.0252 66.3241 18.0252C67.2504 18.0252 67.9938 18.3085 68.5544 18.8752C69.115 19.442 69.3953 20.1945 69.3953 21.133V31.4435H77.0003V19.4877C77.0003 18.0861 76.6712 16.8338 76.0131 15.7309C75.355 14.6279 74.4622 13.7535 73.3349 13.1076C72.2076 12.4616 70.931 12.1387 69.505 12.1387C68.3838 12.1387 67.2778 12.3428 66.187 12.7511C65.0962 13.1593 64.1182 13.7352 63.2529 14.4786V0H55.6479V31.4435H63.2529Z" fill="#1B1D23"/>
</g>
</svg>
