<svg width="24" height="403" viewBox="0 0 24 403" fill="none" xmlns="http://www.w3.org/2000/svg">
<g clip-path="url(#clip0_0_706)">
<rect x="14" width="1" height="104" fill="#C8CCD8"/>
<path d="M19.88 152.99V156.644C19.88 157.388 19.754 158.06 19.502 158.66C19.25 159.266 18.863 159.749 18.341 160.109C17.819 160.469 17.147 160.649 16.325 160.649C15.503 160.649 14.816 160.469 14.264 160.109C13.718 159.749 13.307 159.266 13.031 158.66C12.755 158.06 12.617 157.388 12.617 156.644V154.88H8V152.99H19.88ZM14.165 154.88V156.122C14.165 156.584 14.231 157.004 14.363 157.382C14.501 157.766 14.726 158.069 15.038 158.291C15.35 158.519 15.764 158.633 16.28 158.633C16.802 158.633 17.21 158.519 17.504 158.291C17.804 158.069 18.017 157.766 18.143 157.382C18.269 157.004 18.332 156.584 18.332 156.122V154.88H14.165ZM13.949 181.885C13.133 181.885 12.392 182.056 11.726 182.398C11.066 182.74 10.541 183.211 10.151 183.811C9.767 184.411 9.575 185.101 9.575 185.881C9.575 186.673 9.767 187.366 10.151 187.96C10.541 188.56 11.066 189.028 11.726 189.364C12.392 189.706 13.133 189.877 13.949 189.877C14.765 189.877 15.503 189.706 16.163 189.364C16.823 189.028 17.345 188.56 17.729 187.96C18.113 187.366 18.305 186.673 18.305 185.881C18.305 185.101 18.113 184.411 17.729 183.811C17.345 183.211 16.823 182.74 16.163 182.398C15.503 182.056 14.765 181.885 13.949 181.885ZM13.949 179.914C14.813 179.914 15.617 180.064 16.361 180.364C17.111 180.67 17.765 181.09 18.323 181.624C18.881 182.164 19.316 182.797 19.628 183.523C19.94 184.249 20.096 185.035 20.096 185.881C20.096 186.739 19.94 187.528 19.628 188.248C19.316 188.974 18.881 189.607 18.323 190.147C17.765 190.687 17.111 191.104 16.361 191.398C15.617 191.692 14.813 191.839 13.949 191.839C13.079 191.839 12.269 191.692 11.519 191.398C10.775 191.11 10.121 190.699 9.557 190.165C8.999 189.631 8.564 189.001 8.252 188.275C7.94 187.549 7.784 186.751 7.784 185.881C7.784 185.005 7.94 184.201 8.252 183.469C8.564 182.743 8.999 182.113 9.557 181.579C10.121 181.051 10.775 180.64 11.519 180.346C12.269 180.058 13.079 179.914 13.949 179.914ZM19.88 211.541V215.906C19.88 216.56 19.742 217.151 19.466 217.679C19.196 218.213 18.8 218.636 18.278 218.948C17.756 219.26 17.123 219.416 16.379 219.416C15.641 219.416 15.032 219.275 14.552 218.993C14.072 218.711 13.712 218.372 13.472 217.976C13.232 217.58 13.097 217.211 13.067 216.869L8 219.794V217.661L12.923 214.961V213.431H8V211.541H19.88ZM14.291 213.431V215.231C14.291 215.867 14.45 216.401 14.768 216.833C15.086 217.265 15.605 217.481 16.325 217.481C17.051 217.481 17.567 217.268 17.873 216.842C18.179 216.416 18.332 215.885 18.332 215.249V213.431H14.291ZM18.188 241.761V238.674H19.88V246.747H18.188V243.66H8V241.761H18.188ZM19.88 266.385V272.784H18.188V268.275H14.795V272.469H13.112V268.275H8V266.385H19.88ZM13.949 294.139C13.133 294.139 12.392 294.31 11.726 294.652C11.066 294.994 10.541 295.465 10.151 296.065C9.767 296.665 9.575 297.355 9.575 298.135C9.575 298.927 9.767 299.62 10.151 300.214C10.541 300.814 11.066 301.282 11.726 301.618C12.392 301.96 13.133 302.131 13.949 302.131C14.765 302.131 15.503 301.96 16.163 301.618C16.823 301.282 17.345 300.814 17.729 300.214C18.113 299.62 18.305 298.927 18.305 298.135C18.305 297.355 18.113 296.665 17.729 296.065C17.345 295.465 16.823 294.994 16.163 294.652C15.503 294.31 14.765 294.139 13.949 294.139ZM13.949 292.168C14.813 292.168 15.617 292.318 16.361 292.618C17.111 292.924 17.765 293.344 18.323 293.878C18.881 294.418 19.316 295.051 19.628 295.777C19.94 296.503 20.096 297.289 20.096 298.135C20.096 298.993 19.94 299.782 19.628 300.502C19.316 301.228 18.881 301.861 18.323 302.401C17.765 302.941 17.111 303.358 16.361 303.652C15.617 303.946 14.813 304.093 13.949 304.093C13.079 304.093 12.269 303.946 11.519 303.652C10.775 303.364 10.121 302.953 9.557 302.419C8.999 301.885 8.564 301.255 8.252 300.529C7.94 299.803 7.784 299.005 7.784 298.135C7.784 297.259 7.94 296.455 8.252 295.723C8.564 294.997 8.999 294.367 9.557 293.833C10.121 293.305 10.775 292.894 11.519 292.6C12.269 292.312 13.079 292.168 13.949 292.168ZM19.88 323.831V325.73H9.692V330.293H8V323.831H19.88ZM19.88 350.376V352.266H8V350.376H19.88ZM13.949 374.102C13.133 374.102 12.392 374.273 11.726 374.615C11.066 374.957 10.541 375.428 10.151 376.028C9.767 376.628 9.575 377.318 9.575 378.098C9.575 378.89 9.767 379.583 10.151 380.177C10.541 380.777 11.066 381.245 11.726 381.581C12.392 381.923 13.133 382.094 13.949 382.094C14.765 382.094 15.503 381.923 16.163 381.581C16.823 381.245 17.345 380.777 17.729 380.177C18.113 379.583 18.305 378.89 18.305 378.098C18.305 377.318 18.113 376.628 17.729 376.028C17.345 375.428 16.823 374.957 16.163 374.615C15.503 374.273 14.765 374.102 13.949 374.102ZM13.949 372.131C14.813 372.131 15.617 372.281 16.361 372.581C17.111 372.887 17.765 373.307 18.323 373.841C18.881 374.381 19.316 375.014 19.628 375.74C19.94 376.466 20.096 377.252 20.096 378.098C20.096 378.956 19.94 379.745 19.628 380.465C19.316 381.191 18.881 381.824 18.323 382.364C17.765 382.904 17.111 383.321 16.361 383.615C15.617 383.909 14.813 384.056 13.949 384.056C13.079 384.056 12.269 383.909 11.519 383.615C10.775 383.327 10.121 382.916 9.557 382.382C8.999 381.848 8.564 381.218 8.252 380.492C7.94 379.766 7.784 378.968 7.784 378.098C7.784 377.222 7.94 376.418 8.252 375.686C8.564 374.96 8.999 374.33 9.557 373.796C10.121 373.268 10.775 372.857 11.519 372.563C12.269 372.275 13.079 372.131 13.949 372.131Z" fill="#C8CCD8"/>
</g>
<defs>
<clipPath id="clip0_0_706">
<rect width="24" height="403" fill="white"/>
</clipPath>
</defs>
</svg>
