<svg width="817" height="171" viewBox="0 0 817 171" fill="none" xmlns="http://www.w3.org/2000/svg">
<path d="M92.0371 134C99.7038 134 106.662 132.875 112.912 130.625C119.245 128.375 123.954 126.167 127.037 124L143.037 155.75C139.12 159.083 132.412 162.458 122.912 165.875C113.495 169.292 102.287 171 89.2871 171C77.1204 171 65.7038 168.875 55.0371 164.625C44.3704 160.375 34.9538 154.417 26.7871 146.75C18.7038 139 12.3288 129.958 7.66211 119.625C3.07878 109.208 0.78711 97.9167 0.78711 85.75C0.78711 73.5833 3.07878 62.2917 7.66211 51.875C12.2454 41.375 18.5788 32.25 26.6621 24.5C34.8288 16.75 44.2454 10.75 54.9121 6.49999C65.6621 2.16666 77.1204 -1.26362e-05 89.2871 -1.26362e-05C102.287 -1.26362e-05 113.495 1.70832 122.912 5.12499C132.412 8.54166 139.12 11.9167 143.037 15.25L127.037 47C123.954 44.75 119.245 42.5417 112.912 40.375C106.662 38.125 99.7038 37 92.0371 37C83.5371 37 76.1204 38.3333 69.7871 41C63.4538 43.5833 58.1621 47.1667 53.9121 51.75C49.6621 56.3333 46.4954 61.5 44.4121 67.25C42.3288 73 41.2871 79.0417 41.2871 85.375C41.2871 91.7917 42.3288 97.9167 44.4121 103.75C46.4954 109.5 49.6621 114.667 53.9121 119.25C58.1621 123.833 63.4538 127.458 69.7871 130.125C76.1204 132.708 83.5371 134 92.0371 134ZM213.17 171C201.92 171 191.92 168.708 183.17 164.125C174.503 159.458 167.67 153.083 162.67 145C157.753 136.833 155.295 127.5 155.295 117C155.295 106.5 157.753 97.1667 162.67 89C167.67 80.75 174.503 74.25 183.17 69.5C191.92 64.75 201.92 62.375 213.17 62.375C224.42 62.375 234.337 64.75 242.92 69.5C251.503 74.25 258.212 80.75 263.045 89C267.878 97.1667 270.295 106.5 270.295 117C270.295 127.5 267.878 136.833 263.045 145C258.212 153.083 251.503 159.458 242.92 164.125C234.337 168.708 224.42 171 213.17 171ZM213.17 139.75C217.503 139.75 221.253 138.792 224.42 136.875C227.587 134.958 230.045 132.25 231.795 128.75C233.545 125.25 234.42 121.292 234.42 116.875C234.42 112.375 233.545 108.375 231.795 104.875C230.045 101.375 227.587 98.625 224.42 96.625C221.253 94.625 217.503 93.625 213.17 93.625C208.837 93.625 205.045 94.625 201.795 96.625C198.628 98.625 196.128 101.375 194.295 104.875C192.545 108.375 191.67 112.375 191.67 116.875C191.67 121.292 192.545 125.25 194.295 128.75C196.128 132.25 198.628 134.958 201.795 136.875C205.045 138.792 208.837 139.75 213.17 139.75ZM355.695 62.375C362.862 62.375 369.862 63.8333 376.695 66.75C383.529 69.6667 389.154 74.2917 393.57 80.625C397.987 86.875 400.195 95.125 400.195 105.375V168H362.07V111.625C362.07 104.292 360.32 98.7917 356.82 95.125C353.32 91.375 348.737 89.5 343.07 89.5C339.32 89.5 335.779 90.5 332.445 92.5C329.195 94.4167 326.529 97.1667 324.445 100.75C322.445 104.25 321.445 108.292 321.445 112.875V168H283.445V65.375H321.445V80.5C322.445 77.75 324.529 75 327.695 72.25C330.945 69.4167 334.987 67.0833 339.82 65.25C344.737 63.3333 350.029 62.375 355.695 62.375ZM408.527 65.375H426.027V23.25H463.652V65.375H486.652V96.625H463.652V125.25C463.652 129.5 464.277 132.958 465.527 135.625C466.777 138.208 469.069 139.5 472.402 139.5C474.652 139.5 476.569 139 478.152 138C479.736 137 480.694 136.333 481.027 136L494.027 163C493.444 163.5 491.611 164.417 488.527 165.75C485.527 167.083 481.694 168.292 477.027 169.375C472.361 170.458 467.152 171 461.402 171C451.152 171 442.694 168.125 436.027 162.375C429.361 156.542 426.027 147.583 426.027 135.5V96.625H408.527V65.375ZM582.723 168V151.375C581.973 153.042 580.056 155.458 576.973 158.625C573.973 161.792 569.973 164.667 564.973 167.25C559.973 169.75 554.139 171 547.473 171C537.473 171 528.723 168.583 521.223 163.75C513.723 158.833 507.889 152.292 503.723 144.125C499.556 135.875 497.473 126.75 497.473 116.75C497.473 106.75 499.556 97.6667 503.723 89.5C507.889 81.25 513.723 74.6667 521.223 69.75C528.723 64.8333 537.473 62.375 547.473 62.375C553.889 62.375 559.514 63.4167 564.348 65.5C569.181 67.5 573.098 69.9167 576.098 72.75C579.098 75.5 581.181 78.0417 582.348 80.375V65.375H620.098V168H582.723ZM534.723 116.75C534.723 121.417 535.806 125.625 537.973 129.375C540.139 133.042 543.014 135.917 546.598 138C550.264 140.083 554.306 141.125 558.723 141.125C563.306 141.125 567.348 140.083 570.848 138C574.348 135.917 577.098 133.042 579.098 129.375C581.181 125.625 582.223 121.417 582.223 116.75C582.223 112.083 581.181 107.917 579.098 104.25C577.098 100.5 574.348 97.5833 570.848 95.5C567.348 93.3333 563.306 92.25 558.723 92.25C554.306 92.25 550.264 93.3333 546.598 95.5C543.014 97.5833 540.139 100.5 537.973 104.25C535.806 107.917 534.723 112.083 534.723 116.75ZM694.836 141.125C699.586 141.125 703.503 140.333 706.586 138.75C709.669 137.083 711.753 135.75 712.836 134.75L730.211 160.5C728.878 161.583 726.586 163 723.336 164.75C720.086 166.417 716.003 167.875 711.086 169.125C706.253 170.375 700.711 171 694.461 171C682.711 171 672.378 168.792 663.461 164.375C654.544 159.875 647.586 153.542 642.586 145.375C637.669 137.208 635.211 127.625 635.211 116.625C635.211 105.542 637.669 95.9583 642.586 87.875C647.586 79.7917 654.544 73.5417 663.461 69.125C672.378 64.625 682.711 62.375 694.461 62.375C700.628 62.375 706.128 63.0417 710.961 64.375C715.878 65.625 720.003 67.0833 723.336 68.75C726.669 70.3333 729.003 71.7083 730.336 72.875L712.586 98.875C712.003 98.2917 710.919 97.4583 709.336 96.375C707.836 95.2917 705.878 94.3333 703.461 93.5C701.044 92.6667 698.169 92.25 694.836 92.25C690.753 92.25 686.919 93.2917 683.336 95.375C679.836 97.4583 677.003 100.333 674.836 104C672.669 107.667 671.586 111.875 671.586 116.625C671.586 121.375 672.669 125.625 674.836 129.375C677.003 133.042 679.836 135.917 683.336 138C686.919 140.083 690.753 141.125 694.836 141.125ZM730.93 65.375H748.43V23.25H786.055V65.375H809.055V96.625H786.055V125.25C786.055 129.5 786.68 132.958 787.93 135.625C789.18 138.208 791.471 139.5 794.805 139.5C797.055 139.5 798.971 139 800.555 138C802.138 137 803.096 136.333 803.43 136L816.43 163C815.846 163.5 814.013 164.417 810.93 165.75C807.93 167.083 804.096 168.292 799.43 169.375C794.763 170.458 789.555 171 783.805 171C773.555 171 765.096 168.125 758.43 162.375C751.763 156.542 748.43 147.583 748.43 135.5V96.625H730.93V65.375Z" fill="#EEEFF4"/>
</svg>
